<svg xmlns="http://www.w3.org/2000/svg" viewBox="0 0 437.38 334.55"><defs><style>.cls-1{fill:#00b67a;}.cls-2{fill:#1d1d1b;}</style></defs><g id="Layer_2" data-name="Layer 2"><g id="Layer_2-2" data-name="Layer 2"><path class="cls-1" d="M224.72,313.71a6.15,6.15,0,0,1-1.26.29,36.92,36.92,0,0,1-17.86,4.14,5.82,5.82,0,0,1-1.67.89l-1.56.29a6,6,0,0,1-2.28-.34l-.44.14c-.45.07-.83.78-1.26,1.06A5.33,5.33,0,0,0,197,320a8.71,8.71,0,0,1-1.56,1.11c-1.63.47-3.26-.56-4.89-.08-.75.12-1.07,1.45-1.82,1.57l-.3.05.21-.89c-.06-.63-.94-.28-1.39-.21-1,.38-1.84,1.37-2.89,1.53-2.81.88-5.72-.59-8.67.31a4.57,4.57,0,0,0-2,1.6l.21-.9c-2.68.64-5.34,0-7.94,0l-.13.23c.2.4.86.94,1.14.68l-.26.47a5.07,5.07,0,0,0-1.8.29c-1.78.49-3.41-.53-5.32.2-.93.25-3.17-.39-5.37-1.08a23.47,23.47,0,0,1-4.94-.39c.77,1,2.63-.24,3.4,1.06l-.73.33c-.75.12-3.61-.93-4.4-1.23.05-.09.14-.27.23-.47a29.36,29.36,0,0,1-8-3.28c.14.26.25.57.42.84l-.41.49L140,322c-.37-.58-.84-.72-1.18-1.1,0,0,.1-.45.25-.47h0a32.6,32.6,0,0,1-11.19-11.76,5,5,0,0,0-1.72-.9c-1.13,5.95,3.52,11.94,8.16,16.38a1.87,1.87,0,0,0,1.15.07l.11,1.05c1,.67,2.33,1.61,3.9,2.6h0v0c4.18,2.62,9.74,5.55,12.41,4.66l.66-1c1.93-.52,3.58,3.51,5.33,2.8l.67-1c2.2-.78,2.6,1.51,6.16.52a4.28,4.28,0,0,0,2.81.62.9.9,0,0,0,.58-.3,1.91,1.91,0,0,0,1.5-.24,5.09,5.09,0,0,0,1.61-.68c2.66-.86,6.27,1.57,9.08.7a20,20,0,0,1,3.38-1.18c1-.38,2.08-.55,3.11-.93l.75-.11c.3,0,1.59.6,2.47.25s2.66-.86,3-1.56c.52.56,1.27.44,2,.32,1-.37,2.17-1.2,3.19-1.57.6-.1,1.25.23,2,.11l2.64-1.06c1-.38,2.08-.55,3.1-.93l.23,2.11a32.34,32.34,0,0,0,5.67-2.61c.31-.05.8.3,1.4.2.2-.08.4-.19.59-.28a6,6,0,0,1,2.17-1.26c.8-.54,1.6-1.11,2.4-1.63.5.34.67.53,1.1.25.15,0,.43-.28.73-.33a.78.78,0,0,1,.64-.08c.38-.15.75-.3,1.12-.47.28-.41.48-.88.68-.91a1.52,1.52,0,0,1,1.16.06c6.44-3.16,12.14-7.74,15.08-14.26C234.31,310.17,229.57,312.05,224.72,313.71Z"/><path class="cls-1" d="M241.63,213.79c0,1.29-.63,1.52-1.71,1.53,1.09.85,1.54,3,1.77,4.93l0,1.94a12.31,12.31,0,0,1,.67,2.79c0,.22-.42.65-.2,1.08s.87.85.88,1.5c.23,2.15-1.28,1.52-1.27,2.81,0,.86.66,1.72.67,2.58.23,1.07-2.12,2.82-2.33,3.89a25.31,25.31,0,0,1,1.56,5.37c.24,2.37-1,4.32-.79,6.68,0,.22.22.43.22.65-2.13,2.17-3.17,6.06-3.58,8.86-.61,3-10.75,23.36-23.45,23.48-7.75.08-13.58-2-16.88-8.66a16.31,16.31,0,0,1-1.75-3.21c-.23-1.51,1.7-2,1.69-2.82a6.56,6.56,0,0,0-1.1-2.14c0-1.72,1.9-4.76,3-6.06l-.65-.85c0-1.08,1.27-1.52,1.48-2.6-.22-.21-.87-.85-.88-1.28,0-1.08,2.57-1.75,2.56-3.26-.47-3.87,2-7.43,3.2-9.75l.29-1.75c.21-.86,1.75-5.23,1.75-5.23,0-3.88,11.37-20.54,11.35-22.7a10.78,10.78,0,0,0-3.63-.1c-.65,0-24.07,4.76-24.06,5.41.88,1.71,2,3.42,2,5.14a18,18,0,0,1-.36,7.54,4.67,4.67,0,0,1,.45,2.37c.69,4.51-1.63,9.06-1.62,9.92.93,7.09-4,10.37-5.23,16.2a12,12,0,0,1-4,7.14c-2.57.89-9.74,16.46-22.66,16.58-1.29,0-3,.25-3.44.25-5.17.05-12.36-8.7-12.83-13-.94-7.74,2.63-16.81,5.58-23.73-.05-4.74,10.28-27.88,15.88-27.93,2.15,0,6.48,2.52,6.72,4.88.47,3.88-12.44,27.47-13.21,37,.47,3.87-2.94,7.35-2.24,12.72,0,.44,0,.87.65.86,1.73,0,7.9-7,10-7,1.94,0,1.69-3.89,4.69-5.21,2.56-2.61,3.61-5.63,6.16-8.24,0,.86-.19,1.72-.19,2.37a9.39,9.39,0,0,0,2.77-3l-1.3-1.28.21-.65,1.94.2h-.22A5,5,0,0,1,181,248a37.16,37.16,0,0,0,4.31-21.57c-.93-7.31-3.27-4.06-3.73-7.07l.21-.65c-2.17-1.91-9.3-4.21-10-7,1.06-1.73,15.49-1.44,20.86-2.57,4.51-.69,9-2.45,13.32-2.5,7.32-.07,15.46-4.67,18.69-4.7C233.55,201.81,240.68,205.19,241.63,213.79Zm-5.13,3.5c0-1.29-.72-7.1-1.8-7.09-5.38.05-13.53,24.89-16.3,28.15-2.13,2.39-6.55,12.33-7.17,15.57-1.69,2.82-.8,6-1.85,8.42a20.46,20.46,0,0,0-2.06,10.13l.44,1.08c7.11-.07,10.27-7,15-10.27l1.29.42.86-.65-1.09-1.29.43-.22.86.43a21.4,21.4,0,0,0,5.52-8.24l-.22-.21c3.81-6.93,7-13.85,6.67-22.24l-.43-.64c.42-.44.81-4.75.58-6C237,222,237,219.87,236.5,217.29Z"/><path class="cls-2" d="M222.49,153.29c-.43-12.7,2.59-23.68,4.31-36,.64-4.52,3.66-14.42,3.44-17.65a1.59,1.59,0,0,0-1.5-1.29c-5.6,0-39.62,5-40.91,6.24-3.23,0-5.81,1.72-9,1.72-.43,0-.43-.21-1.08-.21-2.37.86-15.07,3.87-15.07,5.38a6.27,6.27,0,0,1,.43,2.15c0,1.94-5.38.87-5.17,3.45.22,1.72,3.45,2.58,3.66,3.66.22,1.94-3.87,1.94-4.52,3.87.43.22,1.08.87,1.08,1.3.21,1.5-1.08,1.93-1.08,3.23a8.17,8.17,0,0,1,2.16,4.3c.43,3.66-4.74,6.68-4.31,9,0,.43.22.43.22.86l1.72-.64.64.21c0,.87-.86,2.16-.86,3.23.22,1.51.65,2.8.86,4.52.43,6-2.36,12.49-1.72,19.6.65,5.81,2.58,11.41,3,17.22.21.86-.22,1.51,0,2.37.21,2.15,1.93,3.87,2.15,6l-.43.86a11.33,11.33,0,0,0,3.44,4.3c-5,0-8-8-9.9-10.76-3.45-3.66-5.6-14.43-6.24-19.38-.22-1.94-.22-3.87-.43-6a7.84,7.84,0,0,0-.87-3.87,83,83,0,0,1,.22-20.67l-.22-.86A102.58,102.58,0,0,1,148,123.36c.43-1.29,1.94-6.67,1.72-7.53a1.38,1.38,0,0,0-1.29-1.29c-8,0-22.17,10.76-28.63,10.76-2.8,0-14.21-.86-14.43-3.23-.21-.65,11.63-4.95,15.5-4.95,3.66,0,6.46-3.23,10.12-4.52,3.45-1.29,20.24-6.68,20.46-9.47a264.2,264.2,0,0,1,6.88-29.28c1.94-2.37,1.51-6.68,3-9.91a78.37,78.37,0,0,0,5.38-16.58c1.51-9.25,8.61-17.86,9-24.32,0-2.37,1.94-3,2.16-4.74.21-3.44,6.67-18.3,11-18.3.86,0,4.52,1.72,5,2.58a4.7,4.7,0,0,0-.22,1.94c.43,2.8,1.73,7.54,1.94,9.26.65,7.53-7.1,15.72-7.1,19.81-.22,4.09-3.88,8.18-4.09,10.54.21,5-1.73,9.26-4.1,13.35a24.85,24.85,0,0,1-3.87,11.84l-1.72,3c.21.64.64.86.64,1.72.65,5.17-5.16,12.49-5.16,13.35-.22,2.15-3.45,12.27-5.39,12.7.22,2.37,2.59,1.51,3.45,2.58,3.23-1.5,7.32-3.44,11.62-3.44.65,0,1.3.65,1.94.65,1.72,0,2.8-1.94,4.31-1.94h2.58c6.68-2.37,26.48-4.31,34.66-4.31,13.35,0,6.68-4.09,9.69-9.26-.21-3.66,2.58-13.77,3.66-17.86C238,63.3,238,59.42,238.42,56A110.9,110.9,0,0,1,242.94,37c1.51-4.74,1.73-10.33,2.8-15.5.65-2.58,3.23-10.33,3-12.92-.22-1.72.64-3,3.23-3,6.24,0,9.25,7.32,9.69,11.41.64,4.73-3,9.47-2.59,14a3.13,3.13,0,0,0,.43,1.29c-2.15,6-1.72,14-5.6,19.38a23.76,23.76,0,0,1-2.58,12.27c0,.65.22,1.29.22,1.72.43,4.31-2.8,9-2.8,13.14a31.09,31.09,0,0,1-3.23,13.13c.21,1.51,8.39,2.37,10.33,3.23a15.35,15.35,0,0,0,2.8,1.08c0,.64-.43,3.44-1.51,3.44-1.29,0-2.15-1.94-5.81-1.94-9,0-8.4,3-8.4,11-.64,11.84-3.87,17.44-5.16,27.34l.64,1.3c-.43,3-2.36,6.24-1.93,9.25,0,5.82-2.16,9.48-1.94,15.07.43,6.25-1.51,6.46-1.51,7.76-.21,2.58-.21,4.3-3.87,4.3-5.17,0-6.68-7.75-7.11-11.19C221.85,159.32,222.49,156.52,222.49,153.29Z"/><path class="cls-2" d="M323.71,117.25c-4.74,7.1-8.82,14.68-15.71,19.85-1.94,1.51-7.54,4.48-5.17,3.4l2.58,1.08a14.5,14.5,0,0,1-3.23,2.8l.86.64a45.74,45.74,0,0,0-5.17,3.66c-1.29.86-13.13,5.17-14.42,5.17-12.27,0-22.82-6-23.68-15.07-.65-6.46-1.29-15.07,1.72-20.88-.65.64,2.58-3.66,2.15-6.68-.64-6.46,12.7-23.68,16.58-28.42,2.8-3.66,6.89-4.73,12.06-4.73,8.18,0,15.28,6,16.14,13.35,1.08,10.76-3.23,9-4.09,13.34-1.72,8-16.36,15.29-25,15.29-1.29,0-2.37-.22-3.66-.22-3,0-3,9.48-4.31,10.55v.86c.22,2.37.22,7.75.43,9.69.22,2.16.86,8.4,4.31,8.4,21.1,0,27.34-22.18,41.77-29.28,1.74-4.19,3.27-2.47,3.48-4.19Zm-47.37-3c0,.43.22,1.72,1.08,1.72,1.08,0,4.95-2.15,5.81-2.8,2.37,0,15.72-11,15.72-12.7.22-2.59,1.51-5.17,1.08-7.75-.22-1.73-1.29-9.48-4.31-9.48-6.46,0-12.49,19.16-16.15,22-.43,2.59-1.72,6.25-3.44,8.18Z"/><path class="cls-2" d="M323.49,129.74c.22.43,1.51-4.31,1.51-4.31,1.08-3.66-.43-8.18,1.94-11.84.21-4.31,1.07-8.4,1.29-12.7,0,0,5.6-30.79,6.46-35.74l.86-2.58c-.22-.87,1.51-13.57,3-16.58,1.51-3.88.65-8,2.37-11.84-.86-6.68,6.25-25.84,6.68-25.84,1.5,0,3.23,1.51,4.52,1.51.43,0,1.29-.22,1.94-.22,2.79,0,5.16,1.3,5.59,4.31-3,4.74-8,29.49-8.61,35.74-1.72,1.51-1.08,6.67-2.37,9l.22.43-.43,1.72a30.19,30.19,0,0,1-1.29,4.09c-.22.43.21,3.45-1.08,5.39.21.86-1.51,2.8-1.08,7.1l.65.65c.21,1.07-1.29,5-1.94,5.81.43,3.44-1.72,6.67-1.29,10.33,0,.65.21,1.08.21,1.94,0,.43-2.36,9.69-2.58,9.91.22,2.79-1.72,9.9-1.29,13.77.43,4.52-2.15,8.18-1.72,12.92,0,1.08-.43,3-.43,4.09l.21,1.29c-.86,1.94-.64,8.62-.43,11,.22,1.3,1.08,3.88,1.29,5.6a3.78,3.78,0,0,1-.21,1.72l.21.86c.43.44,1.94,2.8,2.8,2.8,5.81-2.58,13.78-17.65,15.29-23.25-.22-1.94,1.94-3,1.72-5l-.43-.43a7.67,7.67,0,0,0,1.29-4.74c2.8-1.72.22-5.59,2.8-8.61L361,116.6l.87-.43.43.43V119c-2.37,1.94,4.3-21.53,3.66-20.23,0-.22-.43-1.73-.43-1.73a3,3,0,0,0,.64-2.58l.86-2.37c.22-.64,1.08-4.52,1.94-4.52l.65.86c.86,0,1.07-2.15,1.07-2.37h-1.72c.22-1.07,1.72-4.52,1.51-5.38-.43-.21-.43-.43-.43-.65,0-.43,1.29-.21,1.07-1.93-.43-5.39,4.74-10.77,4.31-15.72-.43-2.37,2.58-5,2.15-10.12,2.16-4.3,3-11,4.52-15.93a9.16,9.16,0,0,0,3.66,1.08,2.91,2.91,0,0,1,1.94-.43c4.74,0,5.6.64,6,4.73.65,5.82-7.54,18.09-6.67,26.7.21,1.08-.87,2.8-1.51,3.66l.64,1.08-1.07,1.07.86.65c-2.37,5.6-4.31,11.84-3.88,17.87.22,9.69-6.67,20.88-5.59,32.08l.21.21c.22,1.51-.43,3-.43,4.31a3.13,3.13,0,0,0,.43,1.29c0,3.44-1.08,6.89-.64,10.33,0,.65.64,1.29.86,1.72a15,15,0,0,0-.65,3c.65,4.74,3,9,3.45,14,0,.22-.22.86,0,1.08,1.07,2.8,5.16,11,8.82,11,2.16,0,5.38-3,7.11-4.09l.86.43c0,1.29-1.51,2.8-2.15,3.87.43,0,.64.65.64.87.22,1.72-4.09,3.44-5.38,3.44-8.4,0-16.36-3.66-19.38-11.19-2.15-4.53-3.23-8.83-5.38-13.57.22-.21.22-.64.22-1.07a20.39,20.39,0,0,0-1.3-3.23L364,147l-.65.86c-5.38,7.75-10.12,19-21.53,19-9.47,0-13.56-6-15.71-11l-1.29-2.8c0-.22-.22-.86,0-1.08l-.44-.21-.43.43c-.43-2.37-1.5-4.31-1.72-6.89a15.34,15.34,0,0,1,.43-5.38c1.72-1.51-.43-4.09-1.29-2.59l-.43-.43.65-3c.43-1.72.64-4.09,2.15-5.17A2.3,2.3,0,0,0,323.49,129.74Z"/><path class="cls-2" d="M394.76,141.58c1.29-2.8.86-6,1.72-9,1.72-1.3,1.29-4.31,1.72-6.25.86-2.58,3.23-5.16,3.88-7.75V119l.86-1.5c-.22-2.37,3-3.88,2.8-4.74-.22-1.94-6.68-7.54-7.75-9.69-1.08-2.37-1.94-5.17-3.23-7.53,0-.22.21-.22,0-.43,0-1.3-.86-2.37-.86-3.66C393.47,88,396.69,85,401.22,85a24.79,24.79,0,0,1,3.87.64c.22,0,.43-.21.86-.21,8,0,12.92,7.75,15.07,7.75,2.59,0,4.74-.43,7.75-.43,1.73,0,5.6.86,5.82,3,.64,6.46-6.89,7.32-6.68,9a2.61,2.61,0,0,1,.43,1.73v.86c3.66,2.15,6.89,10.33,6.89,10.33,1.51,0,1.94,5.6,2.15,6.67v.44c-1.5,15.28-10.33,31.64-24.32,31.64-3.45,0-9.05,0-11.63-2.58-2.58-2.37-5.6-5.38-6-8.83a6,6,0,0,1,0-1.93Zm5.59-43.49c.44,4.3,3.23,10.12,5.82,12.49,3.23-1.73,3.66-8.62,5.16-8.62a10.12,10.12,0,0,0,2.16-4.3c-.43-3.45-8-8.4-9.48-8.4C401,89.26,400.14,96.15,400.35,98.09Zm25.41,20.67-.22.21c-.86-2.37-2.15-4.73-3.23-7.1l-1.93-3.45L420,108l.21-.21c-.86,0-5,10.33-6.67,11.84l-2.16,3.23c0,.64-1.29,2.15-1.29,2.58.43,2.58-1.93,8-3.44,10.55l-1.08,3.23c0,.86-.64,5.17-.64,5.6,0,0,.86,2.58.43,3,.21,1.72.64,3.45,3,3.45,1.29,0,8.4-4.31,9.26-5.17,5.6-5.81,9.69-14,8.82-22C426.19,122.85,425.76,118.76,425.76,118.76Z"/><path class="cls-2" d="M80.05,227.38c-.24-2.58,16.28-7.91,18.21-9.22,2.15,0,2.13-2,4.28-2.2,8.6-1.8,15.18-11.34,17.1-13.3,7.67-8.26,16.63-16.52,15-32.22-1.41-11.62-22.3-12.27-31.56-12.18-1.93,0-4.52,0-6.23.92h-.65c-8.61.09-17.18,3.83-24.91,6.71-2.57,1.1-7.28,3.94-9.21,4-.44,0-6.28,2.51-6.86,3.3-5.38,0-25.9,15.32-30,18.59,0,1.51-6.84,5.24-8.33,7-1.9,4.33-9,7.84-10,13.88a18,18,0,0,1-3.38,6.06c-1.94,0-3.27-4.27-3.5-5.78-1-10.32,23.82-29.51,32.38-35.19,6.2-4.15,13.49-7.46,19.48-11.82,3.2-2.4,7.28-3.52,10.92-5.49,3.21-2.18,10.31-2.9,12.87-4.86,6.23-2.22,12.45-4.64,19.55-4.71a9.09,9.09,0,0,0,2.37-.24l6.67-.07.86-.22a31.7,31.7,0,0,0,4.09.17c3,0,13.81,2.88,16,5,3.23,0,15,10.83,15,11.91.22.64-.21,1.29-.2,1.72.24,2.8,2.85,5.14,3.09,8.15.24,1.94,0,3.88.27,5.6.25,3.66-11.18,23.36-14,24.25l-.22-.22c-1.08,0-2.56,2.61-3.2,3l-.85,1.3c-1.48,2.81-8.13,5-10.26,7.64l-.43-.43c-1.94,0-1,3.89-4.27,3.92a1.25,1.25,0,0,1-1.3-.85l-.43.43c-2.55,3.26-6.65,2.65-7.28,4.16-1.27,1.74-6.43,2.87-6.2,4.37,3.24.83,0,.86,4.1.82,6.25.16,14.26,5.25,18,7.79l2.17,1.7v0c5.42,4,7.41,9.19,8.11,15a15.44,15.44,0,0,1-2,11.21l-.43.65c.46,3-12.34,14.55-14.05,15.86a22.88,22.88,0,0,0-5.34,4.79l-2.78,2-.43.44v-.22c-2.13,2.39-4.7,3.49-7.48,5h.21c-2.58,0-1.06,1.52-3.86,1.55,0,0-7.26,6.1-8.55,6.11-.22,0-.43-.21-.65-.21-1.94,0-6.64,3.73-8.57,4.61-.86,0-8.78,4.6-10.71,5.48l-1.72.45A31.6,31.6,0,0,1,58.08,315l-.65-.42s-5.58,2.21-5.36,2.42l-.21.65-2.36.67-.65-.43v-.64c0-.22-7.3,1.36-9.46,1.38-4.52.05-8-5.3-8.48-8.53a5.81,5.81,0,0,1,1.69-3.67l.43.21a7.38,7.38,0,0,0,0,2.15c.24,1.72,5,1.67,6.26,1.66,1.08,0,2.15-.67,3-.67.43,0,1.73.41,1.94.41l.22.43-1.07.65v.65h1.07c7.51-2.87,16.09-6,22.29-11v-.43l.86.21c2.58,0,7.28-3.95,9.42-5.26,10.48-6.77,21-13.77,29.28-22.68,6-6.94,13.41-15.63,12.46-24.23-.47-4.3-11.5-9.79-18.4-10.16a4,4,0,0,1-1.72.45c-1.93,0-3.45-1-5.39-1l-5.81,0c-.43,0-.65-.2-1.08-.2-2.58.67-5.16.91-8,1.37l-1.08-.42c-4.52,0-8.58,3.53-12.67,3.57-2.36,1.1-13.76,1.64-14.38,4.44a107.11,107.11,0,0,0-.75,12.07c-1.38,12.28-4.07,24.15-2.65,36.63a34.27,34.27,0,0,0,.9,4.51c.23,1.07-1.7,1.95-2.56,2-5.38.05-11-5.7-12.2-14.52-.23-1.72.48-16.37.9-17.45,0-.43-.22-.64-.22-.86-.71-6.67,3.11-12.52,2.39-19.83-1.4-11,5.34-26.32,3.71-39.44V209c-.23-1.94.19-2.37,2.13-2.39,3.23,0,10.17,5.28,11.29,9.15v.64a2.68,2.68,0,0,1,.23,1.29L53.7,219c-1.88,5.83-1,10.35-2.43,15.53a3,3,0,0,0-.2,1.94l.65.42c3.64-2,8.8-2.45,13.09-4.22,2.15-.88,10.94-4.63,12.66-4.64A23.75,23.75,0,0,0,80.05,227.38Z"/><path class="cls-2" d="M304.28,192.41c0-1.72,2.13-2,2.12-2.82a.47.47,0,0,0-.43.43c-.47-4.08,4.24-6.93,3.77-10.8,0-1.08-.88-1.93-.89-3l-.22-1.08c1.29,0,3.46,1.26,4.75,1.89l.22-.21c.87,1.49,2.59,1.05,3.89,2.11l.65-.22,2,3.42c1.65,15.06-13.5,28.77-22.48,35.53l.22-.21c-2.37.66-7.06,5.23-8.55,7-3.19,4.12-15.16,13.07-14.93,14.14l5.41,2.53-.65.44a6.13,6.13,0,0,1,2.6.83l.64-.43c4.75,1.67,11,2.9,15.34,5.87,2.6,1.7,6.07,3.82,8.22,3.8,3.25,1.69,15.15,8.25,15.62,12.12.22.43-1.07.66-1.29.66a1.83,1.83,0,0,1-1.51-.85l-1.5,1.09a4.55,4.55,0,0,0-2.6-1.48l-.64.44c-3.24-1.05-10.17-5.5-12.75-5.48-4.56-3.18-30-8.74-33.06-12.16l-.44-.43c-1.07,0-3.73,14.25-4.33,19.21-.41,2.37-.6,5.39-1.87,7.55l-.43-.21c.46,3-1.87,6.48-2.3,6.48l-.22.22v-1.51l-.44-.64a3.32,3.32,0,0,0-.62,2.38.77.77,0,0,0-.43-.22c-.87,0-1,5.61-1,6.47,0,.22.22.43.22.65s-.2.64-.42.65c-.22-.43-.66-1.5-1.31-1.71l.22.86a1.16,1.16,0,0,1-1.08-1.07c0-.65.2-1.29,0-1.72a11.57,11.57,0,0,0-.45-2.37c.85-.87.63-1.72.62-2.59a2.81,2.81,0,0,0-.23-1.29c1.45-5.39-.54-11.4,1.56-16.59.55-10.34,2.6-20.91,4.22-31.26l.86.42.43-.43c-.43-.21-.44-.86-.66-1.29,0-1.29,1-3.88,1-4.31l-.22-.65c.63-1.51,1.28-1.73,1.05-3.45l-.21,1.08a1.62,1.62,0,0,1-.44-.86c0-.86,1.06-1.73.84-2.81l-.22-.43.86-.22-.66-1.07c.21-.43,1.21-8.41,1.82-11.86l.43-.22c0-.21-.22-.43-.22-.64-.71-6.67,3.32-12.74,3.05-18.55.85-.44.81-4.74,1.23-5.61-.64.44-3,5-3.39,5a3.88,3.88,0,0,1-2-2.57c-.48-5.37,5.06-11,4.83-13.39.63-.87.18-3.23,2.12-3.25l1.08.63.64-.22a4.94,4.94,0,0,1,3.68,1.69l.64-.87c2.18,3.42,3.05,3.85,3.52,8.15a25.94,25.94,0,0,1-.78,8.19l-.82,3.66c.47,4.31-3.11,13.17-2.25,12.73a3.15,3.15,0,0,0,.44,1.29c.48,4.3-3.89,19.84-4.26,26.09l.22.21c2.36,0,2.33-3,4.7-3.06v.22c0-.65,17.06-17.61,23.23-25C301.49,193.73,303,194.79,304.28,192.41Z"/><path class="cls-2" d="M340,237.27c1.31,1.5,7,6.18,9.32,6.16,1.08,0,39.13-27.73,43.83-31.44-.64.87-2.77,3.26-3,4.34h.21l-4.48,3.92c1.92-1.53,5.13-4.14,5.34-4.15.27,5.38-36.54,27.49-37.79,31.81a32.47,32.47,0,0,1,5,7.48c1.74,1.92,4.78,4.48,5,6.84a16.48,16.48,0,0,1-.2,1.73l.44,1.29c0,1.93-.6,4.52-2.74,5.41h.21a10.71,10.71,0,0,0-3.61,4.56h.21c-3,1.1-7,6.09-8.76,6.54l.21-.22c-3.41,3.27-10,6.78-15.43,6.83-2.16,0-5.17-.38-6.7-1.87h.22c-.87-1.07-2.82-2.56-3.05-4.07-.95-8.81,4.42-9.51,5-13,.19-2.16,1.9-3.68,3-5.63,1.48-2.6,1.89-4.75,3.8-7.14,1.49-1.95,6.61-6.53,6.37-9.11-.23-1.72-3.26-3-4.34-4.05-2.39-2.12-8.07-10.25-9.36-10.24h-.22c-.89-3.22-3.28-6-4-11.15-.24-2.8-.73-8.61,1-10.78l-.44-.64c-.08-8.4,2.75-5.84,2.72-8.64,0-2.37,7.83-13.64,10.41-13.66l.87.42c6-.06,3.2-3.05,10.52-3.12,5.6-.05,10.33.12,14.67,3.52,5.21,3.82,3.29,5.35,6.54,8.33l-.2.86.65,1.07c-.59,5.82-.7,15.94-3.47,18.77-2.77,3.26-5.13,3.71-8.78,5.25-1.51,0-5-2.1-5.2-3.61,0-.43.42-.86.63-1.08l-.43-.43c.19-2.58,1.26-3.45,2.1-5.4l-.22-.64c.18-3.23,2.73-6.7,2.7-9.93h-.22a9.09,9.09,0,0,0,.19-3.45c-.46-3-2.41-4.28-3.08-6.43-.87-.63-2.18-2.56-3-2.55-1.29,0-5.34,4.36-7.05,5.24-1.94.66-7.63,13.2-9.76,15.59l.22.22c-.84,1.51-2.28,9.28-1.81,12.72S336.33,234.29,340,237.27Zm6.61,15.44c-1.5,0-2.74,6.27-4.66,8l.65-.22c0,1.51-.14,8.4-2.93,8.43l.43.21c-.19,2.58-1.07.65-.38,4.95,0,.65-1.28,1.74-1.06,2.38,0,.22.44.43.87.42,2.77-2.82,6.62-5.66,8.95-8.91l-.21.43s4.27-4.35,4.66-7.8C352.3,259.33,347.92,252.7,346.63,252.71Z"/></g></g></svg>